{
	"asset":{
		"generator":"Khronos glTF Blender I/O v5.0.21",
		"version":"2.0"
	},
	"scene":0,
	"scenes":[
		{
			"name":"Scene",
			"nodes":[
				0
			]
		}
	],
	"nodes":[
		{
			"mesh":0,
			"name":"uploads-files-117335-coral_shade",
			"scale":[
				0.45387470722198486,
				0.45387470722198486,
				0.45387470722198486
			],
			"translation":[
				0,
				21.611412048339844,
				0
			]
		}
	],
	"meshes":[
		{
			"name":"uploads-files-117335-coral_shade",
			"primitives":[
				{
					"attributes":{
						"POSITION":0,
						"NORMAL":1
					},
					"indices":2
				}
			]
		}
	],
	"accessors":[
		{
			"bufferView":0,
			"componentType":5126,
			"count":174509,
			"max":[
				70.86200714111328,
				25.82000160217285,
				70.9260025024414
			],
			"min":[
				-70.8800048828125,
				-111.90200805664062,
				-70.95000457763672
			],
			"type":"VEC3"
		},
		{
			"bufferView":1,
			"componentType":5126,
			"count":174509,
			"type":"VEC3"
		},
		{
			"bufferView":2,
			"componentType":5125,
			"count":176304,
			"type":"SCALAR"
		}
	],
	"bufferViews":[
		{
			"buffer":0,
			"byteLength":2094108,
			"byteOffset":0,
			"target":34962
		},
		{
			"buffer":0,
			"byteLength":2094108,
			"byteOffset":2094108,
			"target":34962
		},
		{
			"buffer":0,
			"byteLength":705216,
			"byteOffset":4188216,
			"target":34963
		}
	],
	"buffers":[
		{
			"byteLength":4893432,
			"uri":"blume02.bin"
		}
	]
}
