{
	"asset":{
		"generator":"Khronos glTF Blender I/O v5.0.21",
		"version":"2.0"
	},
	"scene":0,
	"scenes":[
		{
			"name":"Scene",
			"nodes":[
				0
			]
		}
	],
	"nodes":[
		{
			"mesh":0,
			"name":"Mohnblume.005",
			"rotation":[
				-0.10661366581916809,
				-0.7960206270217896,
				-0.20419715344905853,
				0.5597217679023743
			],
			"scale":[
				0.489174485206604,
				0.4891745150089264,
				0.4891745448112488
			],
			"translation":[
				2.332618474960327,
				1.6309266090393066,
				2.4502673149108887
			]
		}
	],
	"materials":[
		{
			"doubleSided":true,
			"name":"Kern.004",
			"pbrMetallicRoughness":{
				"metallicFactor":0
			}
		},
		{
			"doubleSided":true,
			"name":"Kern.001",
			"pbrMetallicRoughness":{
				"metallicFactor":0,
				"roughnessFactor":0.5
			}
		}
	],
	"meshes":[
		{
			"name":"Cylinder.044",
			"primitives":[
				{
					"attributes":{
						"POSITION":0,
						"NORMAL":1,
						"TEXCOORD_0":2
					},
					"indices":3,
					"material":0
				},
				{
					"attributes":{
						"POSITION":4,
						"NORMAL":5,
						"TEXCOORD_0":6
					},
					"indices":7,
					"material":1
				}
			]
		}
	],
	"accessors":[
		{
			"bufferView":0,
			"componentType":5126,
			"count":6305,
			"max":[
				1.5308852195739746,
				1.6021702289581299,
				1.4728279113769531
			],
			"min":[
				-1.3395004272460938,
				-0.8672440052032471,
				-1.533761978149414
			],
			"type":"VEC3"
		},
		{
			"bufferView":1,
			"componentType":5126,
			"count":6305,
			"type":"VEC3"
		},
		{
			"bufferView":2,
			"componentType":5126,
			"count":6305,
			"type":"VEC2"
		},
		{
			"bufferView":3,
			"componentType":5123,
			"count":33840,
			"type":"SCALAR"
		},
		{
			"bufferView":4,
			"componentType":5126,
			"count":408,
			"max":[
				0.3798389434814453,
				0.4291985034942627,
				0.436779260635376
			],
			"min":[
				-11.127567291259766,
				-78.59901428222656,
				-10.042159080505371
			],
			"type":"VEC3"
		},
		{
			"bufferView":5,
			"componentType":5126,
			"count":408,
			"type":"VEC3"
		},
		{
			"bufferView":6,
			"componentType":5126,
			"count":408,
			"type":"VEC2"
		},
		{
			"bufferView":7,
			"componentType":5123,
			"count":2292,
			"type":"SCALAR"
		}
	],
	"bufferViews":[
		{
			"buffer":0,
			"byteLength":75660,
			"byteOffset":0,
			"target":34962
		},
		{
			"buffer":0,
			"byteLength":75660,
			"byteOffset":75660,
			"target":34962
		},
		{
			"buffer":0,
			"byteLength":50440,
			"byteOffset":151320,
			"target":34962
		},
		{
			"buffer":0,
			"byteLength":67680,
			"byteOffset":201760,
			"target":34963
		},
		{
			"buffer":0,
			"byteLength":4896,
			"byteOffset":269440,
			"target":34962
		},
		{
			"buffer":0,
			"byteLength":4896,
			"byteOffset":274336,
			"target":34962
		},
		{
			"buffer":0,
			"byteLength":3264,
			"byteOffset":279232,
			"target":34962
		},
		{
			"buffer":0,
			"byteLength":4584,
			"byteOffset":282496,
			"target":34963
		}
	],
	"buffers":[
		{
			"byteLength":287080,
			"uri":"Blume_f%C3%BCr_three_js.bin"
		}
	]
}
